<svg width="12" height="9" viewBox="0 0 12 9" fill="none" xmlns="http://www.w3.org/2000/svg">
<g clip-path="url(#clip0_122_22)">
<path d="M12 7.33333C12 7.68696 11.8595 8.02609 11.6095 8.27614C11.3594 8.52619 11.0203 8.66667 10.6667 8.66667H1.33333C0.979711 8.66667 0.640573 8.52619 0.390524 8.27614C0.140476 8.02609 0 7.68696 0 7.33333V1.33333C0 0.979711 0.140476 0.640573 0.390524 0.390524C0.640573 0.140476 0.979711 0 1.33333 0H10.6667C11.0203 0 11.3594 0.140476 11.6095 0.390524C11.8595 0.640573 12 0.979711 12 1.33333V7.33333Z" fill="#EEEEEE"/>
<path d="M7.14705 2.69496C6.71253 2.39077 6.17497 2.27165 5.65263 2.36379C5.13028 2.45593 4.66593 2.75179 4.36171 3.18629C4.21806 3.40376 4.16496 3.6687 4.2137 3.92472C4.26243 4.18075 4.40917 4.40765 4.62267 4.55712C4.83617 4.70659 5.09958 4.76684 5.35683 4.72503C5.61408 4.68323 5.84486 4.54268 6.00005 4.33329C6.07538 4.22572 6.17117 4.13404 6.28194 4.06348C6.3927 3.99292 6.51628 3.94488 6.64562 3.92208C6.77496 3.89928 6.90752 3.90218 7.03573 3.93062C7.16395 3.95905 7.28531 4.01246 7.39288 4.08779C7.50046 4.16313 7.59214 4.25891 7.6627 4.36968C7.73325 4.48045 7.7813 4.60403 7.8041 4.73337C7.82689 4.8627 7.82399 4.99526 7.79556 5.12348C7.76712 5.25169 7.71372 5.37305 7.63838 5.48063C7.78905 5.26546 7.89586 5.02273 7.95271 4.76628C8.00956 4.50984 8.01534 4.2447 7.96971 3.98602C7.92409 3.72734 7.82795 3.48019 7.6868 3.25866C7.54564 3.03714 7.36224 2.84559 7.14705 2.69496Z" fill="#C60C30"/>
<path d="M7.39271 4.08797C7.17549 3.93585 6.90674 3.87623 6.64557 3.92224C6.3844 3.96825 6.1522 4.11611 6.00004 4.33331C5.84523 4.54379 5.61422 4.68535 5.35639 4.72772C5.09856 4.77008 4.8344 4.70989 4.62038 4.56001C4.40635 4.41013 4.25947 4.18246 4.21113 3.92568C4.16279 3.66891 4.21684 3.40342 4.36171 3.18597C4.20664 3.4009 4.09584 3.6445 4.03574 3.90263C3.97565 4.16075 3.96745 4.42824 4.01163 4.68956C4.05581 4.95087 4.15148 5.2008 4.29309 5.42482C4.43471 5.64884 4.61943 5.84248 4.83653 5.99449C5.05363 6.1465 5.29877 6.25384 5.55772 6.31028C5.81667 6.36672 6.08425 6.37113 6.34491 6.32326C6.60558 6.27539 6.85413 6.17618 7.07612 6.03142C7.29812 5.88665 7.48912 5.6992 7.63804 5.47997C7.71339 5.37249 7.76682 5.2512 7.79527 5.12305C7.82372 4.99491 7.82664 4.86241 7.80386 4.73313C7.78107 4.60385 7.73303 4.48034 7.66249 4.36964C7.59194 4.25894 7.50027 4.16323 7.39271 4.08797Z" fill="#003478"/>
<path d="M8.11124 6.8573L8.75391 6.0913L9.00924 6.30563L8.36657 7.07163L8.11124 6.8573ZM8.96791 5.8363L9.61057 5.07063L9.86591 5.28497L9.22324 6.05063L8.96791 5.8363ZM8.62191 7.28663L9.26457 6.52097L9.51991 6.7353L8.87724 7.50097L8.62191 7.28663ZM9.47924 6.26463L10.1226 5.49897L10.3779 5.71363L9.73457 6.47897L9.47924 6.26463ZM9.13224 7.7153L9.77557 6.94963L10.0306 7.16397L9.38757 7.92963L9.13224 7.7153ZM9.98924 6.69363L10.6316 5.92697L10.8872 6.1413L10.2449 6.90797L9.98924 6.69363ZM9.99057 1.97297L10.2459 1.75863L10.8892 2.52497L10.6336 2.7393L9.99057 1.97297ZM9.13324 0.950967L9.38857 0.736633L10.0312 1.50297L9.77557 1.71697L9.13324 0.950967ZM8.62224 1.3803L8.87757 1.16597L10.3776 2.9533L10.1222 3.16763L8.62224 1.3803ZM8.11157 1.8083L8.36724 1.59397L9.00957 2.35997L8.75424 2.57397L8.11157 1.8083ZM8.96824 2.82997L9.22357 2.61563L9.86691 3.3813L9.61191 3.59563L8.96824 2.82997ZM2.13324 5.28463L2.38857 5.0703L3.88824 6.85797L3.63257 7.0723L2.13324 5.28463ZM1.62324 5.7133L1.87824 5.4993L2.52124 6.2653L2.26557 6.47963L1.62324 5.7133ZM2.47891 6.7353L2.73424 6.52097L3.37757 7.28663L3.12224 7.50097L2.47891 6.7353ZM1.11191 6.14163L1.36724 5.9273L2.86724 7.71463L2.61157 7.92897L1.11191 6.14163ZM1.11157 2.5243L2.61091 0.736967L2.86657 0.950967L1.36657 2.73863L1.11157 2.5243ZM1.62224 2.9533L3.12224 1.16563L3.37757 1.37997L1.87757 3.1673L1.62224 2.9533ZM2.13324 3.38163L3.63324 1.59397L3.88857 1.8083L2.38857 3.59597L2.13324 3.38163Z" fill="#292F33"/>
</g>
<defs>
<clipPath id="clip0_122_22">
<rect width="12" height="9" fill="white"/>
</clipPath>
</defs>
</svg>
