<svg width="12" height="9" viewBox="0 0 12 9" fill="none" xmlns="http://www.w3.org/2000/svg">
<g clip-path="url(#clip0_122_31)">
<path d="M1.33333 0C0.979711 0 0.640573 0.140476 0.390524 0.390524C0.140476 0.640573 0 0.979711 0 1.33333L0 7.33333C0 7.68696 0.140476 8.02609 0.390524 8.27614C0.640573 8.52619 0.979711 8.66667 1.33333 8.66667H3.66667V0H1.33333Z" fill="#006847"/>
<path d="M10.6666 0H8.33325V8.66667H10.6666C11.0202 8.66667 11.3593 8.52619 11.6094 8.27614C11.8594 8.02609 11.9999 7.68696 11.9999 7.33333V1.33333C11.9999 0.979711 11.8594 0.640573 11.6094 0.390524C11.3593 0.140476 11.0202 0 10.6666 0Z" fill="#CE1126"/>
<path d="M3.66675 0H8.33341V8.66667H3.66675V0Z" fill="#EEEEEE"/>
<path d="M7.66667 4.33331C7.66667 4.77534 7.49107 5.19926 7.17851 5.51182C6.86595 5.82438 6.44203 5.99998 6 5.99998C5.55797 5.99998 5.13405 5.82438 4.82149 5.51182C4.50893 5.19926 4.33333 4.77534 4.33333 4.33331H4C4 4.86375 4.21071 5.37245 4.58579 5.74753C4.96086 6.1226 5.46957 6.33331 6 6.33331C6.53043 6.33331 7.03914 6.1226 7.41421 5.74753C7.78929 5.37245 8 4.86375 8 4.33331H7.66667Z" fill="#A6D388"/>
<path d="M4.51444 5.08968C4.50455 5.0701 4.49089 5.05269 4.47424 5.03843C4.45759 5.02416 4.43827 5.01334 4.41742 5.00659C4.39656 4.99983 4.37457 4.99727 4.35272 4.99906C4.33086 5.00085 4.30958 5.00695 4.2901 5.01701C4.27057 5.02693 4.25318 5.04061 4.23893 5.05726C4.22469 5.07391 4.21386 5.0932 4.20708 5.11404C4.2003 5.13487 4.1977 5.15684 4.19942 5.17869C4.20114 5.20053 4.20715 5.22182 4.2171 5.24134C4.2471 5.30034 4.2801 5.35801 4.31577 5.41334L4.3171 5.41568L4.31977 5.41968L4.32077 5.42201L4.3211 5.42268L4.32244 5.42434L4.32344 5.42634V5.42701L4.32444 5.42868L4.32477 5.42934L4.32577 5.43101L4.3261 5.43168L4.3271 5.43301L4.32777 5.43401L4.32844 5.43501L4.32877 5.43601L4.32977 5.43768L4.3301 5.43801L4.33077 5.43901L4.33177 5.44101L4.3321 5.44168L4.3331 5.44334L4.33344 5.44401L4.33577 5.44734V5.44768L4.33744 5.45001C4.35477 5.47568 4.37244 5.50068 4.3911 5.52568C4.40412 5.54318 4.42046 5.55794 4.4392 5.56911C4.45793 5.58028 4.47869 5.58764 4.50028 5.59076C4.52186 5.59389 4.54386 5.59273 4.56499 5.58733C4.58612 5.58194 4.60599 5.57243 4.62344 5.55934C4.64101 5.54631 4.65584 5.52995 4.66708 5.51118C4.67832 5.49241 4.68575 5.47161 4.68894 5.44997C4.69213 5.42832 4.69102 5.40626 4.68567 5.38505C4.68032 5.36384 4.67084 5.34389 4.65777 5.32634C4.60455 5.25088 4.55666 5.1718 4.51444 5.08968ZM4.34877 4.56234C4.33635 4.47034 4.33122 4.37749 4.33344 4.28468C4.33469 4.24052 4.31837 4.19768 4.28806 4.16555C4.25775 4.13343 4.21592 4.11465 4.17177 4.11334L4.15977 4.11368C4.1177 4.11551 4.07789 4.1332 4.04833 4.16319C4.01877 4.19318 4.00166 4.23325 4.00044 4.27534C3.99966 4.30989 3.99955 4.34445 4.0001 4.37901V4.40901L4.00044 4.41068V4.42001L4.00077 4.42101L4.00044 4.42168V4.42268L4.00077 4.42334V4.43301L4.0011 4.43401V4.43768L4.00144 4.44401L4.00177 4.44701V4.45068C4.00477 4.50401 4.0101 4.55701 4.0171 4.60968C4.02331 4.65324 4.04648 4.69257 4.08158 4.71911C4.11667 4.74565 4.16083 4.75724 4.20444 4.75134C4.22635 4.74847 4.24748 4.7413 4.26661 4.73023C4.28574 4.71916 4.30249 4.70442 4.31591 4.68686C4.32932 4.66929 4.33913 4.64925 4.34477 4.62788C4.35041 4.60651 4.35177 4.58424 4.34877 4.56234ZM6.11344 5.99568L6.11144 5.99601L6.0701 5.99868C5.99115 6.00186 5.91207 5.99952 5.83344 5.99168C5.78945 5.98726 5.74552 6.00049 5.71129 6.02846C5.67707 6.05644 5.65536 6.09686 5.65094 6.14084C5.64652 6.18482 5.65975 6.22876 5.68772 6.26299C5.7157 6.29721 5.75612 6.31892 5.8001 6.32334L5.84177 6.32701L5.8431 6.32734L5.84377 6.32701L5.84477 6.32734H5.84544L5.84744 6.32768H5.84944L5.85044 6.32801L5.85277 6.32768L5.85377 6.32801H5.85544L5.85744 6.32834L5.8591 6.32868H5.86344L5.86544 6.32901H5.86977C5.92044 6.33234 5.97144 6.33401 6.02277 6.33301H6.03577L6.0381 6.33268L6.0401 6.33301H6.0451L6.04677 6.33268H6.0531L6.0551 6.33234L6.0571 6.33268L6.05744 6.33234L6.05944 6.33268H6.05977L6.06144 6.33234H6.0641L6.0661 6.33201H6.0681L6.06844 6.33234L6.07044 6.33201H6.07277L6.07444 6.33168H6.0811L6.08277 6.33134H6.0841L6.08544 6.33101L6.08677 6.33134H6.08844L6.08977 6.33101H6.09144C6.10544 6.33068 6.11977 6.32934 6.13377 6.32868C6.17694 6.32518 6.21699 6.30482 6.24526 6.272C6.27352 6.23918 6.28772 6.19655 6.28477 6.15334C6.28391 6.13173 6.2788 6.11049 6.26971 6.09086C6.26063 6.07123 6.24776 6.05358 6.23184 6.03893C6.21593 6.02428 6.19727 6.01292 6.17695 6.0055C6.15663 5.99808 6.13505 5.99474 6.11344 5.99568ZM5.30044 5.84634C5.21637 5.80737 5.13566 5.76155 5.0591 5.70934C5.0295 5.68893 4.99403 5.67874 4.9581 5.68034C4.9232 5.68182 4.88964 5.69422 4.86216 5.71581C4.83469 5.73739 4.8147 5.76707 4.80501 5.80063C4.79532 5.8342 4.79642 5.86996 4.80816 5.90287C4.8199 5.93577 4.84169 5.96416 4.87044 5.98401L4.87077 5.98434L4.87277 5.98534L4.87477 5.98734L4.87677 5.98868L4.87877 5.99034C4.96744 6.05068 5.06144 6.10368 5.15944 6.14901C5.17926 6.15826 5.20071 6.1635 5.22256 6.16444C5.24442 6.16537 5.26624 6.16198 5.28677 6.15445C5.30731 6.14692 5.32616 6.13541 5.34223 6.12058C5.35831 6.10574 5.37129 6.08788 5.38044 6.06801C5.38982 6.04822 5.3952 6.02676 5.39626 6.00488C5.39732 5.983 5.39403 5.96112 5.38659 5.94052C5.37916 5.91991 5.36772 5.90098 5.35293 5.88482C5.33814 5.86865 5.3203 5.85558 5.30044 5.84634ZM6.9771 5.71368C6.94767 5.71507 6.91914 5.72427 6.89444 5.74034C6.81649 5.78986 6.73467 5.833 6.64977 5.86934C6.6131 5.8839 6.58281 5.91104 6.56434 5.9459C6.54587 5.98077 6.54042 6.02107 6.54896 6.05959C6.55751 6.0981 6.57949 6.13232 6.61098 6.1561C6.64246 6.17987 6.68138 6.19166 6.72077 6.18934C6.74057 6.1884 6.76006 6.18412 6.77844 6.17668L6.8231 6.15668H6.82377L6.82577 6.15534L6.82644 6.15501L6.82777 6.15434H6.8291L6.83044 6.15368L6.8311 6.15301L6.8331 6.15268L6.83377 6.15201L6.83477 6.15134L6.83644 6.15068L6.83744 6.15034L6.8391 6.14968L6.83977 6.14934L6.84144 6.14868L6.8421 6.14834C6.8431 6.14768 6.8431 6.14734 6.84377 6.14734L6.84444 6.14701L6.84644 6.14601H6.8471L6.8491 6.14501L6.8511 6.14401L6.85177 6.14368L6.85344 6.14268L6.8541 6.14234L6.8561 6.14134L6.85644 6.14101L6.85877 6.14068L6.8611 6.13934L6.86177 6.13901L6.8631 6.13801H6.86377L6.86577 6.13668L6.86844 6.13601L6.87044 6.13468L6.8731 6.13334L6.87344 6.13301L6.8781 6.13101L6.88044 6.13001L6.8851 6.12734L6.88777 6.12634L6.88977 6.12534L6.89477 6.12268L6.89677 6.12168L6.90444 6.11768L6.90677 6.11701L6.91144 6.11434L6.91377 6.11301H6.9141C6.91444 6.11268 6.9151 6.11234 6.91644 6.11234C6.9171 6.11134 6.91777 6.11101 6.91844 6.11068L6.9211 6.10934L6.9231 6.10834V6.10801L6.92777 6.10601L6.93044 6.10468L6.93077 6.10434L6.93244 6.10334L6.9351 6.10201L6.9371 6.10101H6.93777L6.93977 6.09968L6.9421 6.09834L6.94244 6.09801L6.94444 6.09701L6.94644 6.09601L6.9471 6.09568L6.94844 6.09468L6.94944 6.09434L6.9511 6.09334L6.95177 6.09301L6.95344 6.09201L6.9541 6.09168L6.9561 6.09101C6.95577 6.09068 6.9561 6.09068 6.95644 6.09068L6.95844 6.08968L6.9591 6.08934L6.96044 6.08834L6.9611 6.08801L6.9631 6.08701L6.96377 6.08668C6.96377 6.08601 6.96444 6.08601 6.9651 6.08568L6.9661 6.08534L6.96744 6.08468L6.96844 6.08401L6.96977 6.08334L6.97077 6.08268L6.97177 6.08201L6.97277 6.08101L6.97444 6.08068L6.97577 6.08034L6.97644 6.07968L6.97777 6.07901L6.9791 6.07801L6.97977 6.07768L6.9811 6.07701L6.98244 6.07601L6.98344 6.07534C6.9841 6.07568 6.98444 6.07534 6.9851 6.07501L6.98577 6.07434L6.9871 6.07368L6.9881 6.07301L6.9891 6.07234L6.99044 6.07168L6.99177 6.07068L6.99244 6.07034C6.9931 6.07001 6.99444 6.07001 6.9951 6.06934C6.99444 6.06934 6.99444 6.06901 6.9951 6.06934L6.99644 6.06834L6.99877 6.06668L6.99944 6.06634L7.00177 6.06534L7.00577 6.06301L7.00844 6.06134C7.0105 6.05986 7.01274 6.05863 7.0151 6.05768C7.0361 6.04501 7.0581 6.03201 7.07877 6.01868C7.11596 5.99487 7.14218 5.95728 7.15168 5.91416C7.16118 5.87103 7.15318 5.8259 7.12944 5.78868C7.1119 5.7649 7.08891 5.74568 7.0624 5.73263C7.03589 5.71958 7.00664 5.71308 6.9771 5.71368ZM7.8341 4.17434L7.8261 4.17468C7.78324 4.17648 7.74272 4.19474 7.71298 4.22566C7.68324 4.25658 7.66657 4.29777 7.66644 4.34068C7.66644 4.43301 7.6581 4.52634 7.64244 4.61701C7.63501 4.66064 7.64522 4.70543 7.67082 4.74153C7.69642 4.77763 7.73531 4.80208 7.77894 4.80951C7.82256 4.81693 7.86736 4.80673 7.90346 4.78113C7.93956 4.75553 7.96401 4.71664 7.97144 4.67301V4.67134L7.97177 4.67068L7.9721 4.67001L7.97177 4.66934L7.9721 4.66868V4.66801L7.97244 4.66734V4.66634L7.97277 4.66568V4.66268C7.97344 4.66234 7.97344 4.66168 7.97344 4.66134V4.65934C7.98059 4.61609 7.98637 4.57263 7.99077 4.52901L7.99044 4.52868L7.99077 4.52768L7.9911 4.52601V4.52234L7.99177 4.52134L7.99144 4.52001V4.51934L7.99177 4.51834V4.51701L7.99244 4.51668L7.99177 4.51568V4.51434C7.99244 4.51401 7.99244 4.51368 7.99244 4.51334V4.50701L7.9931 4.50601C7.99763 4.45112 7.99996 4.39575 8.0001 4.34068C8.00002 4.29665 7.98251 4.25444 7.95141 4.22327C7.9203 4.19211 7.87813 4.17452 7.8341 4.17434ZM7.68644 5.07301C7.66727 5.0624 7.64619 5.05567 7.62442 5.05321C7.60265 5.05075 7.58061 5.05261 7.55956 5.05868C7.5385 5.06475 7.51885 5.07491 7.50173 5.08857C7.48461 5.10224 7.47035 5.11916 7.45977 5.13834C7.41503 5.21951 7.36339 5.29668 7.30544 5.36901C7.27821 5.40364 7.26581 5.44765 7.27094 5.4914C7.27607 5.53515 7.29831 5.5751 7.33281 5.6025C7.3673 5.6299 7.41124 5.64253 7.45502 5.63763C7.4988 5.63273 7.53886 5.61069 7.56644 5.57634C7.6051 5.52768 7.6421 5.47668 7.67644 5.42468C7.6771 5.42234 7.67877 5.42001 7.6801 5.41801L7.68044 5.41768L7.68177 5.41568L7.6831 5.41301C7.68377 5.41234 7.68444 5.41168 7.68444 5.41101L7.68477 5.41134L7.6861 5.40934V5.40901C7.68673 5.40839 7.68709 5.40755 7.6871 5.40668L7.68777 5.40634L7.6891 5.40434C7.68977 5.40401 7.68977 5.40301 7.6901 5.40234L7.69044 5.40201L7.69177 5.40001L7.6921 5.39934L7.69277 5.39768L7.69377 5.39701L7.69444 5.39534H7.6951L7.69577 5.39334L7.6961 5.39268L7.69744 5.39134L7.69777 5.39068C7.6981 5.39001 7.6981 5.38934 7.69877 5.38901L7.6991 5.38801L7.70044 5.38701C7.70044 5.38668 7.70044 5.38634 7.7011 5.38601V5.38468L7.7021 5.38401L7.7031 5.38234L7.70344 5.38168L7.70444 5.37968L7.7051 5.37901L7.70577 5.37768L7.70644 5.37668C7.70644 5.37634 7.70644 5.37601 7.7071 5.37568C7.7071 5.37534 7.7071 5.37501 7.70777 5.37468L7.70877 5.37301L7.7091 5.37201L7.70977 5.37101L7.71044 5.37001C7.7111 5.36968 7.7111 5.36934 7.7111 5.36901C7.71177 5.36868 7.71177 5.36834 7.71177 5.36768L7.71244 5.36668L7.71344 5.36534L7.71444 5.36401V5.36301L7.7151 5.36201L7.7161 5.36068L7.7171 5.35968V5.35868L7.71844 5.35701V5.35601C7.7191 5.35568 7.71944 5.35534 7.71944 5.35468L7.7201 5.35401L7.72077 5.35301L7.72177 5.35134L7.72244 5.35034V5.34968L7.72377 5.34801C7.72377 5.34768 7.72377 5.34734 7.72444 5.34701L7.72477 5.34601L7.72577 5.34468L7.72644 5.34334L7.7271 5.34234C7.72744 5.34201 7.7271 5.34134 7.72777 5.34101C7.72777 5.34068 7.72777 5.34034 7.72844 5.34034L7.7291 5.33868L7.72977 5.33801L7.73044 5.33601L7.7311 5.33568L7.73177 5.33434L7.73244 5.33368L7.7331 5.33201L7.73377 5.33134L7.73444 5.32934C7.7351 5.32901 7.73444 5.32868 7.73444 5.32868L7.73577 5.32701L7.7361 5.32634L7.73744 5.32468V5.32434L7.73844 5.32234L7.7391 5.32168L7.73977 5.31968L7.74144 5.31768L7.74244 5.31568V5.31534L7.74377 5.31301L7.74444 5.31268L7.75277 5.29701C7.77346 5.25846 7.7781 5.21331 7.76568 5.17137C7.75326 5.12942 7.72478 5.09407 7.68644 5.07301Z" fill="#5C913B"/>
<path d="M6 5.66667C6.55228 5.66667 7 5.51743 7 5.33333C7 5.14924 6.55228 5 6 5C5.44772 5 5 5.14924 5 5.33333C5 5.51743 5.44772 5.66667 6 5.66667Z" fill="#55ACEE"/>
<path d="M6.16675 5.66667C6.44289 5.66667 6.66675 5.51743 6.66675 5.33333C6.66675 5.14924 6.44289 5 6.16675 5C5.89061 5 5.66675 5.14924 5.66675 5.33333C5.66675 5.51743 5.89061 5.66667 6.16675 5.66667Z" fill="#FFCC4D"/>
<path d="M6.37229 5.42463C6.34348 5.42439 6.31521 5.41673 6.29022 5.40239C6.26523 5.38805 6.24436 5.36751 6.22962 5.34275C6.21488 5.31799 6.20677 5.28985 6.20607 5.26105C6.20537 5.23224 6.2121 5.20374 6.22562 5.1783C6.27896 5.0803 6.33496 4.9913 6.39296 4.9133C6.34521 4.91533 6.29742 4.91633 6.24962 4.9163C6.15762 4.9163 6.07362 4.8413 6.07362 4.7493C6.07362 4.6573 6.13862 4.58263 6.23096 4.58263L6.25829 4.58297C6.35696 4.58297 6.45829 4.57697 6.54896 4.56863C6.57421 4.56609 6.59971 4.56946 6.62343 4.57848C6.64716 4.58751 6.66845 4.60194 6.68562 4.62063C6.69029 4.61697 6.69496 4.6133 6.69996 4.6103C6.73329 4.5883 6.76429 4.57063 6.79329 4.55663C6.8139 4.54073 6.83802 4.52999 6.86362 4.5253L6.87562 4.52297C6.93829 4.50263 6.98229 4.49997 6.99996 4.49997C7.02606 4.49987 7.05182 4.50593 7.07514 4.51766C7.09846 4.52939 7.11869 4.54645 7.13418 4.56746C7.14966 4.58847 7.15998 4.61284 7.16429 4.63858C7.16859 4.66433 7.16677 4.69073 7.15896 4.71563C7.13162 4.8043 7.07062 4.8243 6.96362 4.84563C6.93566 4.85682 6.90904 4.87114 6.88429 4.8883C6.85414 4.9079 6.81851 4.91738 6.7826 4.91534C6.74669 4.9133 6.71237 4.89986 6.68462 4.87697C6.70734 4.90627 6.71962 4.94233 6.7195 4.97941C6.71938 5.0165 6.70687 5.05247 6.68396 5.08163C6.62729 5.15397 6.57162 5.23997 6.51862 5.33763C6.50436 5.364 6.48322 5.386 6.45746 5.40132C6.43169 5.41664 6.40226 5.42469 6.37229 5.42463ZM5.89896 4.89497C5.8916 4.89501 5.88425 4.89457 5.87696 4.89363C5.7579 4.8782 5.64021 4.85357 5.52496 4.81997C5.50396 4.81374 5.4844 4.80343 5.46739 4.78964C5.45038 4.77585 5.43626 4.75883 5.42582 4.73958C5.41539 4.72032 5.40886 4.6992 5.40659 4.67742C5.40433 4.65564 5.40638 4.63362 5.41262 4.61263L5.41462 4.60597L5.41062 4.61363C5.39993 4.63275 5.38558 4.64957 5.36838 4.66314C5.35118 4.6767 5.33147 4.68674 5.31039 4.69269C5.28931 4.69863 5.26726 4.70036 5.24551 4.69778C5.22376 4.69519 5.20273 4.68835 5.18362 4.67763C5.07288 4.61624 4.97114 4.53986 4.88129 4.45063C4.85093 4.4192 4.83413 4.3771 4.83451 4.3334C4.83489 4.2897 4.85242 4.2479 4.88332 4.217C4.91422 4.1861 4.95602 4.16857 4.99972 4.16819C5.04342 4.16781 5.08552 4.18461 5.11696 4.21497C5.18262 4.28063 5.25962 4.3383 5.34629 4.38663C5.38025 4.40567 5.40648 4.43599 5.42042 4.47234C5.43437 4.50869 5.43515 4.54877 5.42262 4.58563C5.44013 4.55055 5.46945 4.52276 5.50542 4.50715C5.54139 4.49154 5.58171 4.48912 5.61929 4.5003C5.71129 4.52763 5.81229 4.54863 5.91929 4.56297C5.96127 4.56831 5.99965 4.58941 6.02664 4.62201C6.05363 4.65461 6.0672 4.69625 6.06462 4.73849C6.06203 4.78073 6.04347 4.8204 6.01271 4.84946C5.98194 4.87852 5.94128 4.89479 5.89896 4.89497ZM5.08162 4.1153C4.93962 4.1153 4.75596 4.0603 4.64462 3.92897C4.47396 3.72763 4.37362 3.4693 4.38896 3.2713C4.39296 3.2183 4.34129 3.17563 4.29062 3.1623C4.26162 3.15463 4.21062 3.14997 4.18662 3.20163C4.18203 3.21157 4.17552 3.2205 4.16747 3.22793C4.15942 3.23535 4.14999 3.24111 4.13971 3.24489C4.12944 3.24866 4.11852 3.25038 4.10758 3.24993C4.09664 3.24949 4.08589 3.2469 4.07596 3.2423C4.06602 3.2377 4.05709 3.23119 4.04966 3.22315C4.04224 3.2151 4.03648 3.20567 4.0327 3.19539C4.02893 3.18511 4.02721 3.17419 4.02766 3.16325C4.0281 3.15231 4.03069 3.14157 4.03529 3.13163C4.08729 3.01863 4.20396 2.9683 4.33262 3.00097C4.45196 3.03197 4.56629 3.1393 4.55496 3.2843C4.54296 3.4383 4.63029 3.65397 4.77162 3.82097C4.84596 3.90897 4.97529 3.94463 5.06329 3.94797C5.13496 3.95163 5.17129 3.9353 5.17896 3.9283C5.16029 3.88397 4.91329 3.75397 4.80796 3.69863C4.71829 3.65163 4.69162 3.58697 4.68496 3.5413C4.66262 3.38963 4.81829 3.23597 4.96896 3.08797C5.02196 3.03563 5.07229 2.9863 5.09962 2.94997C5.13062 2.90897 5.12562 2.88163 5.11962 2.86463C5.09662 2.8023 4.99696 2.74063 4.87696 2.71397C4.76596 2.6893 4.69096 2.63563 4.65429 2.5543C4.60596 2.4473 4.63162 2.3073 4.73229 2.12597C4.73761 2.1164 4.74476 2.10798 4.75333 2.10118C4.76191 2.09438 4.77174 2.08933 4.78226 2.08633C4.79278 2.08333 4.8038 2.08242 4.81467 2.08368C4.82554 2.08493 4.83606 2.08831 4.84562 2.09363C4.85519 2.09895 4.86361 2.1061 4.87041 2.11468C4.87721 2.12325 4.88226 2.13308 4.88526 2.1436C4.88827 2.15413 4.88917 2.16514 4.88791 2.17601C4.88666 2.18688 4.88328 2.1974 4.87796 2.20697C4.78296 2.37763 4.79229 2.45497 4.80629 2.48597C4.82029 2.51663 4.85596 2.5383 4.91296 2.55097C5.05396 2.5823 5.22362 2.66597 5.27562 2.80663C5.30529 2.88697 5.29029 2.97363 5.23296 3.04997C5.19829 3.0963 5.14362 3.14997 5.08596 3.20697C4.99996 3.29163 4.83962 3.4493 4.84996 3.5173C4.85196 3.5313 4.87029 3.54363 4.88562 3.5513C5.13596 3.68263 5.30229 3.77763 5.33629 3.89397C5.34224 3.91381 5.34406 3.93467 5.34165 3.95525C5.33925 3.97582 5.33266 3.99569 5.32229 4.01363C5.28996 4.06997 5.22262 4.10463 5.12729 4.1133C5.11296 4.11463 5.09729 4.1153 5.08162 4.1153Z" fill="#5C913B"/>
<path d="M6.49992 4.66667C6.59197 4.66667 6.66659 4.51743 6.66659 4.33333C6.66659 4.14924 6.59197 4 6.49992 4C6.40787 4 6.33325 4.14924 6.33325 4.33333C6.33325 4.51743 6.40787 4.66667 6.49992 4.66667Z" fill="#FFCC4D"/>
<path d="M5.76401 4.06264C5.76401 4.15864 5.64901 4.2363 5.50701 4.2363C5.36534 4.2363 5.25001 4.15864 5.25001 4.06264C5.25001 3.96664 5.36501 3.88897 5.50701 3.88897C5.64868 3.88897 5.76401 3.96664 5.76401 4.06264ZM5.36834 2.5203C5.38501 2.59097 5.29268 2.67364 5.16201 2.70464C5.03134 2.73564 4.91201 2.7033 4.89501 2.63264C4.87834 2.56164 4.97068 2.47897 5.10101 2.44797C5.23201 2.4173 5.35168 2.4493 5.36834 2.5203Z" fill="#FFCC4D"/>
<path d="M7.511 4.31833C7.541 4.34167 7.592 4.07533 7.58434 3.99233C7.58434 3.98667 7.57467 3.81033 7.612 3.68433C7.635 3.64167 7.63634 3.32333 7.601 3.23967C7.629 3.23733 7.66267 3.22833 7.66667 3.19433C7.53734 3.242 7.507 2.922 7.38267 2.738C7.262 2.55367 7.11234 2.44633 6.956 2.33433C6.96903 2.30162 6.98727 2.27122 7.01 2.24433C6.81834 2.34033 6.51967 1.99267 6.07834 2.01867C5.97934 2.02833 5.93234 2.03433 5.907 2.095C5.82467 2.10167 5.741 2.12033 5.741 2.22867C5.741 2.25467 5.76467 2.302 5.81734 2.30233C5.88934 2.32333 5.948 2.307 5.997 2.40767L6.01 2.51167C6.01 2.51167 5.94567 2.42933 5.91034 2.41633L5.932 2.372C5.89867 2.35267 5.83967 2.36833 5.83967 2.36833C5.83967 2.36833 5.71134 2.30833 5.60834 2.32433L5.58834 2.241C5.57034 2.29233 5.53 2.28967 5.52434 2.338C5.513 2.30333 5.498 2.26033 5.48734 2.22567C5.451 2.275 5.46167 2.32833 5.44867 2.37967C5.43467 2.39167 5.406 2.392 5.39867 2.359C5.395 2.31833 5.39 2.31467 5.39 2.26633C5.364 2.312 5.33267 2.33433 5.32234 2.41267L5.29467 2.326C5.29567 2.42833 5.20767 2.48933 5.12434 2.56167C5.10067 2.605 5.128 2.60533 5.13 2.62767L5.174 2.64967L5.253 2.644C5.266 2.66033 5.25534 2.66167 5.28967 2.672C5.38167 2.69767 5.49634 2.58733 5.58634 2.761C5.545 2.79567 5.50334 2.87667 5.51667 2.892C5.53334 2.892 5.48334 2.91533 5.55067 2.894C5.48067 2.962 5.43334 3.05167 5.43334 3.057C5.42534 3.07633 5.46134 3.05433 5.454 3.08933L5.47067 3.08733C5.311 3.26 5.46534 3.44567 5.44834 3.54533C5.475 3.58833 5.47834 3.54433 5.51167 3.54C5.53967 3.66267 5.62034 3.737 5.66967 3.834L5.56567 3.835C5.568 3.881 5.60967 3.92467 5.64267 3.965L5.573 3.987C5.5282 4.00933 5.48831 4.04038 5.45567 4.07833C5.43267 4.13433 5.56667 4.14767 5.63134 4.15767L5.629 4.22533C5.73 4.235 5.84667 4.205 5.84667 4.19933L5.872 4.17967L5.929 4.211C5.948 4.211 5.97767 4.135 5.964 4.07667C6.00067 4.12033 6.03534 4.19067 6.072 4.23467L6.10634 4.23C6.13767 4.27967 6.18067 4.329 6.212 4.37867L6.247 4.392C6.26734 4.385 6.28467 4.38267 6.29567 4.34267L6.31167 4.37067L6.367 4.33267L6.40567 4.325L6.43467 4.37233C6.45167 4.366 6.46834 4.329 6.46934 4.28967C6.48667 4.324 6.49134 4.32133 6.504 4.33033L6.52967 4.27633L6.668 4.40567L6.77267 4.41167C6.81 4.437 6.91234 4.453 6.92967 4.412C7.01367 4.448 7.11267 4.40733 7.10767 4.36733C7.185 4.398 7.304 4.37733 7.304 4.37233C7.31834 4.37067 7.355 4.33467 7.32034 4.30767C7.06467 4.12967 6.68567 3.835 6.53934 3.764C6.53934 3.71133 6.49967 3.52167 6.457 3.46967L6.49167 3.41167C6.59134 3.50467 6.62734 3.49567 6.68034 3.51033C6.737 3.55533 6.75667 3.62367 6.81334 3.686L6.864 3.69533C6.82269 3.58688 6.75988 3.4879 6.67934 3.40433C6.734 3.43167 6.82467 3.50467 6.88534 3.55767C6.92534 3.62467 6.937 3.678 6.97367 3.762C7.00034 3.779 7.02767 3.84133 7.024 3.78967C7.01767 3.69267 6.94934 3.539 6.94934 3.528C7.058 3.614 7.05667 3.748 7.08967 3.82967C7.11734 3.871 7.13134 3.92633 7.14334 3.91333L7.11134 3.66133L7.09267 3.569C7.173 3.61533 7.20167 3.792 7.23934 4.004C7.23934 4.03767 7.253 4.07467 7.251 4.09633C7.26834 4.11767 7.288 4.17667 7.28767 4.14167C7.28767 4.14167 7.28767 3.797 7.264 3.718C7.258 3.67567 7.274 3.607 7.274 3.607C7.30334 3.75 7.33467 3.905 7.36434 4.04767V4.15267L7.40834 4.197C7.41667 4.11033 7.42667 4.02433 7.43534 3.93833L7.40234 3.63V3.542C7.40167 3.511 7.43067 3.51667 7.449 3.552C7.45334 3.62767 7.45334 3.68667 7.45634 3.762C7.46934 3.848 7.47834 3.911 7.48467 4.02067C7.48834 4.10933 7.49234 4.322 7.511 4.31833Z" fill="#C1694F"/>
</g>
<defs>
<clipPath id="clip0_122_31">
<rect width="12" height="9" fill="white"/>
</clipPath>
</defs>
</svg>
