<svg width="12" height="9" viewBox="0 0 12 9" fill="none" xmlns="http://www.w3.org/2000/svg">
<g clip-path="url(#clip0_122_27)">
<path d="M1.33333 0C0.979711 0 0.640573 0.140476 0.390524 0.390524C0.140476 0.640573 0 0.979711 0 1.33333L0 7.33333C0 7.68696 0.140476 8.02609 0.390524 8.27614C0.640573 8.52619 0.979711 8.66667 1.33333 8.66667H4V0H1.33333Z" fill="#D91023"/>
<path d="M4 0H8V8.66667H4V0Z" fill="#EEEEEE"/>
<path d="M10.6667 0H8V8.66667H10.6667C11.0203 8.66667 11.3594 8.52619 11.6095 8.27614C11.8595 8.02609 12 7.68696 12 7.33333V1.33333C12 0.979711 11.8595 0.640573 11.6095 0.390524C11.3594 0.140476 11.0203 0 10.6667 0Z" fill="#D91023"/>
</g>
<defs>
<clipPath id="clip0_122_27">
<rect width="12" height="9" fill="white"/>
</clipPath>
</defs>
</svg>
