<svg width="24" height="24" viewBox="0 0 24 24" fill="none" xmlns="http://www.w3.org/2000/svg">
<path fill-rule="evenodd" clip-rule="evenodd" d="M18.5278 18.7649C18.5278 19.3273 18.0429 19.5676 17.4455 19.5676H16.3631C15.7657 19.5676 15.2808 19.3273 15.2808 18.7649V17.7463C15.2808 16.6206 14.3121 15.4929 13.1161 15.4929H10.9514C9.75541 15.4929 8.78672 16.6206 8.78672 17.7463V18.7649C8.78672 19.3273 8.30183 19.5676 7.70437 19.5676H6.62203C6.02458 19.5676 5.53969 19.3273 5.53969 18.7649V10.5513C5.53969 10.4158 5.59705 10.2864 5.6977 10.1907L11.2577 4.95879C11.6809 4.56049 12.366 4.56049 12.7881 4.95879L18.3698 10.2111C18.4704 10.3068 18.5278 10.4362 18.5278 10.5707V18.7649ZM20.6925 10.0175C20.6925 9.74759 20.5789 9.48987 20.3775 9.29836L13.5599 2.85012C12.7156 2.0525 11.3443 2.04946 10.4968 2.84403L3.69321 9.22605C3.48973 9.41756 3.375 9.67631 3.375 9.94728V19.7836C3.375 20.9093 4.3437 21.605 5.53969 21.605H8.78672C9.9827 21.605 10.9514 20.9093 10.9514 19.7836V18.7649C10.9514 18.2026 11.4363 17.7463 12.0337 17.7463C12.6312 17.7463 13.1161 18.2026 13.1161 18.7649V19.7836C13.1161 20.9093 14.0848 21.605 15.2808 21.605H18.5278C19.7238 21.605 20.6925 20.9093 20.6925 19.7836V10.0175Z" fill="black"/>
</svg>
